# xmcd
#
# Track frame offsets: 
#        150
#        11212
#        23117
#        34958
#        43768
#        56044
#        67644
#        80275
#        94618
#        107917
#        116482
#        128730
#        143590
#        155903
#        169318
#        183117
#        193516
#        205894
#        216193
#        228121
#        243484
#        256516
#        271740
#        283027
#        296153
#
# Disc length: 4123 seconds
#
# Revision: 1
# Processed by: cddbd v1.5.2PL0 Copyright (c) Steve Scherf et al.
# Submitted via: ExactAudioCopy v1.0b1
#
DISCID=61101919
DTITLE=Various Artist - Mark Lamarr's Rhythm and Blues Christmas
DYEAR=2010
DGENRE=R&B
TTITLE0=The Moonglows - Hey, Santa Claus
TTITLE1=Joe Turner - Christmas Date Boogie
TTITLE2=The Marshall Brothers - Mr Santa's Boogie
TTITLE3=Lloyd Glenn - Sleigh Ride
TTITLE4=Titus Turner - Christmas Morning
TTITLE5=J.B. Summers - I Want A Present For Christmas
TTITLE6=Jimmy Witherspoon - How I Hate To See Xmas Come Around
TTITLE7=The Ravens - White Christmas
TTITLE8=Larry Darnell - Christmas Blues
TTITLE9=Thelma Cooper - I Want A Man
TTITLE10=Harry Crafton - Bring That Cadillac Back
TTITLE11=Lightnin' Hopkins - Happy New Year
TTITLE12=Felix Gross - Love For Christmas
TTITLE13=Louis Armstrong - Cool Yule
TTITLE14=Floyd Dixon - Empty Stocking Blues
TTITLE15=Mabel Scott - Boogie Woogie Santa Claus
TTITLE16=Billy Ward and His Dominoes - Christmas In Heaven
TTITLE17=Sugar Chile Robinson - Christmas Boogie
TTITLE18=Sonny Boy Williamson - Sonny Boy's Christmas Blues
TTITLE19=Lionel Hampton - Merry Christmas Baby
TTITLE20=The Five Keys - It's Christmas Time
TTITLE21=Little Esther - Far Away Blues (Xmas Blues)
TTITLE22=The Moonglows - Lonely Christmas
TTITLE23=Gatemouth Moore - Christmas Blues
TTITLE24=The Orioles - What Are You Doing New Year's Eve
EXTD=
EXTT0=
EXTT1=
EXTT2=
EXTT3=
EXTT4=
EXTT5=
EXTT6=
EXTT7=
EXTT8=
EXTT9=
EXTT10=
EXTT11=
EXTT12=
EXTT13=
EXTT14=
EXTT15=
EXTT16=
EXTT17=
EXTT18=
EXTT19=
EXTT20=
EXTT21=
EXTT22=
EXTT23=
EXTT24=
PLAYORDER=
